<svg width="18" height="18" viewBox="0 0 18 18" fill="none" xmlns="http://www.w3.org/2000/svg">
<path d="M14.16 0H3.84C1.72 0 0 1.72 0 3.84V14.16C0 16.28 1.72 18 3.84 18H14.16C16.28 18 18 16.28 18 14.16V3.84C18 1.72 16.28 0 14.16 0ZM1 14.16V13.52L6.92 7.62L7.64 8.34L1.1 14.86C1.04 14.64 1 14.4 1 14.16ZM1 12.12V10.68L5.48 6.2L6.2 6.92L1 12.12ZM1 9.26V7.84L4.06 4.78L4.78 5.5L1 9.26ZM1 6.42V4.98L2.62 3.36L3.34 4.08L1 6.42ZM1.52 2.22L1.94 2.64L1.04 3.54C1.06 3.04 1.24 2.6 1.52 2.22ZM1.54 15.82L8.32 9.04L9.04 9.76L2.28 16.54C2 16.34 1.74 16.1 1.54 15.82ZM3.28 16.94L9.76 10.46L10.48 11.18L4.7 16.94L4.76 17H3.84C3.64 17 3.46 16.98 3.28 16.94ZM15.78 16.48C15.46 16.7 15.08 16.86 14.68 16.94L15.46 16.16L15.78 16.48ZM13.26 16.94L13.32 17H11.76L14.02 14.74L14.74 15.46L13.26 16.94ZM10.46 17H8.92L12.6 13.32L13.32 14.04L10.4 16.94L10.46 17ZM7.62 17H6.06L11.18 11.88L11.9 12.6L7.56 16.94L7.62 17ZM17 14.16C17 14.76 16.8 15.32 16.48 15.78L2.22 1.52C2.68 1.2 3.24 1 3.84 1H14.16C15.72 1 17 2.28 17 3.84V14.16Z" fill="#181E25"/>
</svg>
