<svg width="32" height="24" viewBox="0 0 32 24" fill="none" xmlns="http://www.w3.org/2000/svg">
<g clip-path="url(#clip0)">
<path d="M29 0H10.95C10.0437 0 9.2 0.4 8.625 1.1L0.225 11.3687C-0.075 11.7375 -0.075 12.2688 0.225 12.6313L8.625 22.9C9.2 23.6 10.0437 24 10.95 24H29C30.6562 24 32 22.6562 32 21V3C32 1.34375 30.6562 0 29 0ZM30 21C30 21.55 29.55 22 29 22H10.95C10.65 22 10.3688 21.8687 10.175 21.6313L2.29375 12L10.175 2.36875C10.3688 2.1375 10.65 2 10.95 2H29C29.55 2 30 2.45 30 3V21Z" fill="#181E25"/>
<path d="M22.2937 6.29382L18 10.5876L13.7062 6.29382L12.2937 7.70633L16.5875 12.0001L12.2937 16.2938L13.7062 17.7063L18 13.4126L22.2937 17.7063L23.7062 16.2938L19.4125 12.0001L23.7062 7.70633L22.2937 6.29382Z" fill="#181E25"/>
</g>
<defs>
<clipPath id="clip0">
<rect width="32" height="24" fill="white"/>
</clipPath>
</defs>
</svg>
