<svg width="54" height="50" viewBox="0 0 54 50" fill="none" xmlns="http://www.w3.org/2000/svg">
<path d="M0.00140593 16.9322C0.171523 15.9763 0.298057 15.0106 0.517381 14.0659C2.14685 7.04901 8.07846 1.49811 15.222 0.279488C23.7967 -1.1823 32.0158 3.19049 35.4406 11.0445C35.6838 11.6021 35.9355 12.1695 36.0691 12.7592C36.1914 13.2931 36.4627 13.43 36.9646 13.4608C38.9582 13.5865 40.8886 14.0421 42.6966 14.8778C49.2496 17.909 53.0316 22.968 53.8034 30.1512C54.1338 33.2285 53.5785 36.187 52.3525 39.0296C52.2246 39.3244 52.1796 39.7073 52.24 40.0232C52.749 42.6743 53.2931 45.3183 53.8259 47.9652C54.0916 49.2831 53.1834 50.1845 51.8464 49.9231C49.1653 49.4005 46.487 48.8624 43.8017 48.3607C43.4685 48.2978 43.0607 48.3328 42.7528 48.4683C32.8214 52.8243 21.0313 47.5208 17.8286 37.224C17.6725 36.7209 17.4588 36.5406 16.9428 36.5098C14.9295 36.3883 13.0147 35.8586 11.1574 35.0858C10.8313 34.9502 10.4095 34.9111 10.0594 34.9768C7.47813 35.4603 4.90387 35.9844 2.3254 36.4875C1.06288 36.7335 0.65938 36.5462 0.00140593 35.4533C0.00140593 35.1738 0.00140593 34.8957 0.00140593 34.6162C0.0239008 34.5897 0.0590489 34.5659 0.0646726 34.5366C0.61439 31.8114 1.16551 29.0863 1.69695 26.3584C1.73632 26.1599 1.65056 25.9237 1.58167 25.7197C1.21753 24.6157 0.785913 23.5312 0.485045 22.4104C0.243225 21.5118 0.156058 20.5741 0 19.6531C0.00140593 18.7461 0.00140593 17.8392 0.00140593 16.9322ZM50.283 46.4238C50.2563 46.2631 50.245 46.1792 50.2281 46.0967C49.8359 44.1333 49.4675 42.1642 49.0401 40.2077C48.87 39.432 48.9741 38.7612 49.3115 38.0443C50.6865 35.1347 51.0886 32.0742 50.4672 28.92C48.9206 21.0632 41.8404 15.8407 33.8154 16.5954C25.3264 17.3934 19.0602 25.2809 20.2355 33.6911C21.6696 43.9586 32.6147 49.8001 42.0386 45.3183C42.5912 45.0556 43.1268 45.0095 43.7173 45.1297C45.8782 45.5699 48.0433 45.9849 50.283 46.4238ZM33.0069 13.5055C32.9184 13.2525 32.8621 13.0723 32.7947 12.8962C28.6837 2.22062 14.4895 -0.33821 6.98746 8.32354C2.71344 13.2581 2.04422 18.8496 4.65362 24.8155C4.8856 25.3438 5.0529 25.8483 4.92918 26.4254C4.7689 27.1745 4.61706 27.9264 4.46663 28.6782C4.17982 30.1065 3.89582 31.5347 3.60339 33.0035C3.73414 32.9909 3.80022 32.9895 3.86489 32.977C5.97941 32.5633 8.09392 32.1566 10.2056 31.7304C10.7778 31.6144 11.2952 31.6815 11.8393 31.9093C12.8052 32.3131 13.7893 32.6877 14.7904 32.9895C15.4961 33.202 16.2441 33.276 17.0159 33.42C16.6574 28.4518 17.927 24.0762 20.9863 20.2736C24.0554 16.4598 28.0792 14.2462 33.0069 13.5055Z" fill="#0D93E1"/>
</svg>
