<svg width="15" height="15" viewBox="0 0 15 15" fill="none" xmlns="http://www.w3.org/2000/svg">
<mask id="mask0" mask-type="alpha" maskUnits="userSpaceOnUse" x="0" y="0" width="15" height="15">
<path fill-rule="evenodd" clip-rule="evenodd" d="M0.625 0.625122H14.0581V14.0587H0.625V0.625122Z" fill="white"/>
</mask>
<g mask="url(#mask0)">
<path fill-rule="evenodd" clip-rule="evenodd" d="M3.81774 12.297C4.18024 12.297 4.52211 12.4345 4.88399 12.5801C7.10086 13.6051 9.72274 13.1389 11.4309 11.4314C13.6846 9.17637 13.6846 5.50825 11.4309 3.2545C10.3396 2.16325 8.88836 1.56262 7.34336 1.56262C5.79774 1.56262 4.34586 2.16387 3.25524 3.25512C1.54649 4.96262 1.08149 7.5845 2.09711 9.78012C2.24336 10.142 2.38461 10.4945 2.38461 10.8607C2.38461 11.2264 2.25899 11.5945 2.14836 11.9195C2.05711 12.187 1.91899 12.5907 2.00774 12.6795C2.09461 12.7695 2.50086 12.6276 2.76899 12.5357C3.09086 12.4257 3.45586 12.2995 3.81774 12.297ZM7.32771 14.0589C6.37271 14.0589 5.41146 13.857 4.51209 13.4407C4.24709 13.3345 3.99896 13.2345 3.82084 13.2345C3.61584 13.2357 3.34021 13.3307 3.07396 13.4226C2.52771 13.6101 1.84771 13.8439 1.34459 13.3426C0.843337 12.8407 1.07459 12.1626 1.26084 11.617C1.35271 11.3482 1.44709 11.0707 1.44709 10.8607C1.44709 10.6882 1.36396 10.4682 1.23646 10.1514C0.0658371 7.62325 0.607087 4.57637 2.59271 2.592C3.86021 1.32387 5.54709 0.625122 7.34271 0.625122C9.13834 0.625122 10.8258 1.32325 12.0933 2.59137C14.7133 5.21137 14.7133 9.47387 12.0933 12.0939C10.809 13.3789 9.07959 14.0589 7.32771 14.0589Z" fill="#29333D"/>
</g>
<path fill-rule="evenodd" clip-rule="evenodd" d="M9.81018 8.22681C9.46518 8.22681 9.18268 7.94743 9.18268 7.60181C9.18268 7.25618 9.45955 6.97681 9.80455 6.97681H9.81018C10.1552 6.97681 10.4352 7.25618 10.4352 7.60181C10.4352 7.94743 10.1552 8.22681 9.81018 8.22681Z" fill="#29333D"/>
<path fill-rule="evenodd" clip-rule="evenodd" d="M7.30462 8.22681C6.95962 8.22681 6.67712 7.94743 6.67712 7.60181C6.67712 7.25618 6.95337 6.97681 7.299 6.97681H7.30462C7.64962 6.97681 7.92962 7.25618 7.92962 7.60181C7.92962 7.94743 7.64962 8.22681 7.30462 8.22681Z" fill="#29333D"/>
<path fill-rule="evenodd" clip-rule="evenodd" d="M4.79895 8.22681C4.45395 8.22681 4.17145 7.94743 4.17145 7.60181C4.17145 7.25618 4.44832 6.97681 4.79332 6.97681H4.79895C5.14395 6.97681 5.42395 7.25618 5.42395 7.60181C5.42395 7.94743 5.14395 8.22681 4.79895 8.22681Z" fill="#29333D"/>
</svg>
