<svg width="18" height="18" viewBox="0 0 18 18" fill="none" xmlns="http://www.w3.org/2000/svg">
<rect width="18" height="18" rx="5" fill="url(#paint0_linear)"/>
<path d="M11.9699 5.96999C12.1108 5.83588 12.2982 5.76173 12.4927 5.76321C12.6872 5.76468 12.8735 5.84165 13.0124 5.97787C13.1512 6.1141 13.2317 6.29893 13.2368 6.49336C13.2419 6.68779 13.1713 6.87661 13.0399 7.01999L9.04991 12.01C8.9813 12.0839 8.8985 12.1432 8.80645 12.1844C8.71439 12.2255 8.61498 12.2477 8.51416 12.2496C8.41334 12.2514 8.31318 12.2329 8.21967 12.1952C8.12616 12.1575 8.04121 12.1013 7.96991 12.03L5.32391 9.38399C5.25023 9.31532 5.19112 9.23252 5.15013 9.14052C5.10914 9.04853 5.0871 8.94921 5.08532 8.84851C5.08355 8.74781 5.10207 8.64778 5.13979 8.55439C5.17751 8.461 5.23366 8.37617 5.30488 8.30495C5.37609 8.23373 5.46093 8.17758 5.55432 8.13986C5.6477 8.10214 5.74773 8.08362 5.84844 8.08539C5.94914 8.08717 6.04845 8.10921 6.14045 8.15021C6.23245 8.1912 6.31525 8.2503 6.38391 8.32399L8.47791 10.417L11.9509 5.99199C11.9572 5.98429 11.9638 5.97694 11.9709 5.96999H11.9699Z" fill="white"/>
<defs>
<linearGradient id="paint0_linear" x1="-2.51351" y1="-1.72603" x2="21.7978" y2="0.832141" gradientUnits="userSpaceOnUse">
<stop stop-color="#2E70A8"/>
<stop offset="1" stop-color="#124066"/>
</linearGradient>
</defs>
</svg>
