<svg width="60" height="60" viewBox="0 0 60 60" fill="none" xmlns="http://www.w3.org/2000/svg">
<path d="M30 54C36.3652 54 42.4697 51.4714 46.9706 46.9706C51.4714 42.4697 54 36.3652 54 30C54 23.6348 51.4714 17.5303 46.9706 13.0294C42.4697 8.52856 36.3652 6 30 6C23.6348 6 17.5303 8.52856 13.0294 13.0294C8.52856 17.5303 6 23.6348 6 30C6 36.3652 8.52856 42.4697 13.0294 46.9706C17.5303 51.4714 23.6348 54 30 54ZM30 9C31.971 9 34.221 10.77 36.066 14.724C36.717 16.122 37.284 17.73 37.743 19.5H22.257C22.716 17.73 23.283 16.122 23.937 14.724C25.776 10.77 28.026 9 30 9ZM21.216 13.455C20.3301 15.3954 19.6436 17.4208 19.167 19.5H11.808C14.3407 15.1226 18.3637 11.8024 23.142 10.146C22.419 11.136 21.774 12.258 21.216 13.455ZM18.576 22.5C18.1877 24.981 17.9951 27.4888 18 30C18 32.61 18.201 35.136 18.579 37.5H10.38C9.46508 35.1055 8.99733 32.5634 9 30C9 27.36 9.489 24.828 10.38 22.5H18.579H18.576ZM19.167 40.5C19.695 42.729 20.388 44.766 21.216 46.545C21.774 47.742 22.419 48.864 23.142 49.854C18.3637 48.1976 14.3407 44.8774 11.808 40.5H19.17H19.167ZM22.257 40.5H37.743C37.3297 42.1399 36.7674 43.7385 36.063 45.276C34.224 49.23 31.974 51 30 51C28.029 51 25.779 49.23 23.934 45.276C23.2318 43.7383 22.6714 42.1396 22.26 40.5H22.257ZM38.382 37.5H21.618C21.2011 35.0219 20.9944 32.5129 21 30C21 27.351 21.219 24.825 21.618 22.5H38.382C38.781 24.825 39 27.351 39 30C39 32.649 38.781 35.175 38.382 37.5ZM40.833 40.5H48.192C45.6593 44.8774 41.6363 48.1976 36.858 49.854C37.581 48.864 38.226 47.742 38.784 46.545C39.612 44.766 40.305 42.729 40.833 40.5ZM49.623 37.5H41.421C41.799 35.136 42 32.61 42 30C42 27.39 41.799 24.864 41.421 22.5H49.62C50.511 24.828 51 27.36 51 30C51 32.64 50.511 35.172 49.62 37.5H49.623ZM36.858 10.146C41.6365 11.8022 45.6595 15.1224 48.192 19.5H40.83C40.3534 17.4208 39.6668 15.3955 38.781 13.455C38.2468 12.2927 37.6018 11.1846 36.855 10.146H36.858Z" fill="#181E25"/>
</svg>
