<svg width="24" height="24" viewBox="0 0 24 24" fill="none" xmlns="http://www.w3.org/2000/svg">
<path fill-rule="evenodd" clip-rule="evenodd" d="M12 2.75012C17.108 2.75012 21.25 6.89112 21.25 12.0001C21.25 17.1081 17.108 21.2501 12 21.2501C6.891 21.2501 2.75 17.1081 2.75 12.0001C2.75 6.89112 6.891 2.75012 12 2.75012Z" stroke="#29333D" stroke-width="1.5" stroke-linecap="round" stroke-linejoin="round"/>
<g clip-path="url(#clip0)">
<path d="M13.0207 16.141C13.0207 16.6163 12.637 17.0001 12.1616 17.0001C11.6862 17.0001 11.3025 16.6163 11.3025 16.141C11.3025 15.6656 11.6862 15.2819 12.1616 15.2819C12.6312 15.2819 13.0207 15.6656 13.0207 16.141Z" fill="#181E25"/>
<path d="M12.1558 7.00012C10.4147 7.00012 9 8.40906 9 10.1559C9 10.6313 9.38373 11.015 9.85911 11.015C10.3345 11.015 10.7182 10.6313 10.7182 10.1559C10.7182 9.36553 11.3597 8.71834 12.1615 8.71834C12.9519 8.71834 13.5991 9.36553 13.5991 10.1616C13.5991 10.952 12.9519 11.5992 12.1615 11.5992C11.6861 11.5992 11.3024 11.9829 11.3024 12.4583V13.3804C11.3024 13.8558 11.6861 14.2395 12.1615 14.2395C12.6369 14.2395 13.0206 13.8558 13.0206 13.3804V13.2029C14.3494 12.8249 15.323 11.6049 15.323 10.1616C15.3173 8.41478 13.9026 7.00012 12.1558 7.00012Z" fill="#181E25"/>
</g>
<defs>
<clipPath id="clip0">
<rect width="6.3173" height="10" fill="white" transform="translate(9 7.00012)"/>
</clipPath>
</defs>
</svg>
