<svg width="18" height="18" viewBox="0 0 18 18" fill="none" xmlns="http://www.w3.org/2000/svg">
<g clip-path="url(#clip0)">
<path d="M14.3784 13.2432C17.2163 9.7567 16.7028 4.64859 13.2433 1.83778C9.78385 -0.973026 4.64872 -0.48654 1.83791 2.97292C-0.972904 6.43238 -0.486418 11.5675 2.97304 14.3783C5.94601 16.8108 10.2433 16.8108 13.2163 14.3783L16.6217 17.7837C16.946 18.081 17.4595 18.081 17.7568 17.7567C18.0541 17.4324 18.0541 16.9729 17.7568 16.6486L14.3784 13.2432ZM1.64872 8.10805C1.64872 4.54049 4.54061 1.64859 8.10818 1.64859C11.6757 1.64859 14.5947 4.56751 14.5947 8.13508C14.5947 9.83778 13.919 11.4594 12.7298 12.6756H12.7028L12.6757 12.7026C10.1352 15.2162 6.05412 15.1891 3.54061 12.6486C2.32439 11.4594 1.67574 9.83778 1.64872 8.10805Z" fill="#181E25"/>
<path d="M10.2973 7.29724H5.91896C5.45951 7.29724 5.10815 7.64859 5.10815 8.10805C5.10815 8.56751 5.45951 8.91886 5.91896 8.91886H10.2973C10.7568 8.91886 11.1082 8.56751 11.1082 8.10805C11.1082 7.64859 10.7568 7.29724 10.2973 7.29724Z" fill="#181E25"/>
</g>
<defs>
<clipPath id="clip0">
<rect width="18" height="18" fill="white"/>
</clipPath>
</defs>
</svg>
